<svg version="1.1" id="Layer_1" xmlns="http://www.w3.org/2000/svg" xmlns:xlink="http://www.w3.org/1999/xlink" x="0px" y="0px"
	 width="100%" viewBox="0 0 844 305" enable-background="new 0 0 844 305" xml:space="preserve">
<path fill="#FCFCFD" opacity="1.000000" stroke="none" 
	d="
M651.000000,306.000000 
	C434.000000,306.000000 217.500000,306.000000 1.000000,306.000000 
	C1.000000,204.333328 1.000000,102.666664 1.000000,1.000000 
	C282.333344,1.000000 563.666687,1.000000 845.000000,1.000000 
	C845.000000,102.666664 845.000000,204.333328 845.000000,306.000000 
	C780.500000,306.000000 716.000000,306.000000 651.000000,306.000000 
M795.236694,179.303116 
	C795.104126,179.152878 794.971558,179.002625 794.811035,178.047348 
	C798.684631,164.734131 796.118591,151.342148 795.483154,137.940628 
	C794.889832,125.427734 791.100464,112.493553 800.901062,101.198601 
	C804.368652,97.202255 801.014282,92.182182 795.630981,92.074417 
	C788.691833,91.935501 785.525085,97.142731 782.114258,101.782127 
	C774.150574,112.614098 766.453430,123.642616 758.441895,134.438309 
	C756.598022,136.922867 755.033997,140.685669 750.499756,139.071716 
	C750.121216,138.936981 749.248840,139.893250 748.740784,140.462952 
	C740.232605,150.004364 732.083252,159.895554 723.147156,169.016235 
	C716.059875,176.249771 708.140381,182.785812 698.064026,185.707565 
	C690.683777,187.847549 685.406921,184.166245 685.929016,176.613708 
	C686.309998,171.101990 687.185974,165.185349 689.611389,160.334198 
	C697.761719,144.032272 706.663452,128.104156 715.380127,112.088737 
	C717.079346,108.966652 718.574097,105.710854 715.608459,102.992737 
	C712.543335,100.183380 708.789429,100.658142 705.572815,103.243294 
	C704.034912,104.479279 702.538269,105.925285 701.476868,107.569244 
	C695.085144,117.468590 688.086304,127.072578 682.713074,137.507828 
	C676.407471,149.754059 667.939209,160.044357 658.003662,169.208191 
	C649.197266,177.330643 639.996033,185.114227 627.640442,187.501541 
	C620.140808,188.950577 615.378418,186.068512 613.746887,178.469055 
	C612.955627,174.783600 612.359619,170.786743 612.948425,167.136261 
	C613.883667,161.338440 614.390198,154.561386 617.721802,150.233902 
	C627.044922,138.123810 637.692322,127.029686 647.872620,115.583969 
	C661.722961,100.011963 674.827026,83.885841 684.289917,65.174011 
	C691.676514,50.567772 697.594421,35.515965 696.829285,18.656477 
	C696.404602,9.298853 690.593140,4.918034 681.809326,8.024637 
	C678.283691,9.271579 674.486816,10.956540 671.945984,13.551218 
	C665.107483,20.534582 658.122192,27.585045 652.540527,35.551476 
	C629.483826,68.459442 614.009277,105.120224 600.752686,142.815781 
	C599.887146,145.277084 598.961487,147.968643 597.276001,149.845657 
	C590.826355,157.028290 584.470703,164.392166 577.264221,170.766205 
	C572.001953,175.420578 565.795227,179.356323 559.403320,182.293304 
	C551.895752,185.742935 546.830933,182.136353 547.827881,174.085312 
	C548.626648,167.634903 550.778748,161.172134 553.384033,155.172440 
	C556.412598,148.198013 560.708862,141.784302 564.230530,135.010529 
	C566.954163,129.771744 564.534973,125.864616 558.898865,127.309120 
	C555.372620,128.212875 551.898865,131.425400 549.553528,134.485016 
	C536.100952,152.034088 521.262695,168.179993 503.130280,180.959869 
	C499.824371,183.289917 495.345337,184.558914 491.261047,185.021454 
	C486.625793,185.546387 484.142395,182.269287 484.989258,177.657562 
	C485.644165,174.091141 486.599518,170.495789 488.018280,167.167786 
	C495.306305,150.072052 507.337341,136.615433 521.278809,124.714035 
	C528.836792,118.262024 537.242493,113.354424 547.158447,111.454765 
	C553.679688,110.205460 558.524048,113.010323 561.022644,119.065956 
	C561.476807,120.166771 563.320557,121.520485 564.375854,121.405739 
	C569.269531,120.873650 572.479492,117.960030 574.167175,113.316399 
	C575.704651,109.086266 573.498779,106.011925 570.571350,103.799988 
	C567.868042,101.757347 564.609619,100.042274 561.336182,99.233742 
	C549.092896,96.209702 537.611694,99.358566 526.709534,104.796570 
	C506.702332,114.776260 492.128174,130.474091 480.792725,149.420959 
	C472.092865,163.962524 459.735504,174.590012 445.129395,182.760559 
	C442.878754,184.019547 440.173523,184.841125 437.605286,185.081268 
	C431.743530,185.629410 429.194214,181.904465 431.641388,176.611938 
	C432.752441,174.209152 434.147949,171.906586 435.652924,169.722900 
	C441.315918,161.505981 447.412659,153.567444 452.713348,145.126755 
	C458.824493,135.395462 458.502960,129.200333 451.177612,120.547585 
	C446.220032,114.691635 444.945801,109.279984 448.811493,102.431847 
	C449.773071,100.728394 449.601654,96.947372 448.376160,95.792542 
	C446.642822,94.159157 443.352020,93.274498 440.902008,93.561974 
	C438.489471,93.845039 435.966125,95.634270 434.073944,97.390335 
	C430.179657,101.004562 426.623627,104.991417 423.030640,108.918488 
	C421.362885,110.741272 419.934296,112.782875 417.582794,115.754631 
	C417.582794,112.841766 417.771393,111.330322 417.546997,109.882896 
	C416.906647,105.752380 413.378784,103.594727 408.500031,104.189323 
	C403.368958,104.814659 400.404602,107.350922 401.575439,111.260460 
	C403.648834,118.183678 400.777466,123.659607 397.454803,129.011658 
	C386.578461,146.530930 373.474243,162.226761 357.521393,175.332657 
	C353.374237,178.739716 348.381897,181.431107 343.362885,183.386215 
	C336.768311,185.955063 332.897308,182.829346 333.450134,175.715836 
	C333.726501,172.159637 334.727112,168.453003 336.288391,165.246964 
	C339.414703,158.827164 343.367249,152.813278 346.580658,146.431396 
	C350.306366,139.032120 354.400757,131.671677 356.901459,123.836784 
	C360.650299,112.091484 352.085754,103.163055 339.938049,105.637695 
	C334.796051,106.685188 329.597687,108.283714 324.917389,110.618797 
	C309.301788,118.409721 296.987946,130.343018 285.499237,143.218292 
	C284.389984,144.461456 282.906738,145.370895 281.597076,146.435242 
	C281.190674,146.018692 280.784241,145.602127 280.377838,145.185577 
	C287.267517,133.853836 294.308502,122.609001 300.910400,111.112000 
	C302.130005,108.988083 302.673615,105.136658 301.533966,103.368912 
	C300.362579,101.551949 296.770355,100.682518 294.195557,100.592072 
	C292.380615,100.528305 289.925262,102.023430 288.743042,103.574821 
	C284.225433,109.503036 279.135132,115.281578 276.024170,121.940781 
	C267.004059,141.248993 253.736694,156.965546 237.601944,170.496872 
	C226.635391,179.693924 214.860794,187.171616 200.032791,188.574020 
	C187.789490,189.731949 180.459137,183.643356 180.324860,172.006912 
	C180.284531,168.512772 181.726044,167.347397 184.677567,165.990051 
	C197.654251,160.022247 210.676575,154.080185 223.236008,147.301804 
	C233.378464,141.827881 241.377411,133.733124 245.949951,122.854240 
	C248.599350,116.550812 250.231857,109.925873 245.572556,103.893669 
	C240.822708,97.744186 233.893097,98.491402 227.182846,99.179169 
	C226.375137,99.261955 225.601196,99.647034 224.804077,99.864388 
	C213.246872,103.015823 203.685059,109.579979 195.183548,117.706352 
	C181.141220,131.129013 169.702606,146.326401 164.986847,165.616577 
	C160.149994,185.402054 172.408325,200.852188 192.726288,201.273849 
	C207.728577,201.585220 220.717606,196.328369 232.520340,187.648331 
	C237.378555,184.075500 241.859436,179.989563 246.531799,176.120575 
	C246.712219,176.474121 247.035065,176.805679 246.972412,177.029114 
	C246.034317,180.373840 244.953415,183.680634 244.086899,187.042938 
	C242.080765,194.827225 247.184830,200.356155 254.741776,198.007660 
	C257.400330,197.181458 259.982819,194.444412 261.514404,191.920959 
	C273.999817,171.349838 289.977081,153.714279 307.828674,137.871841 
	C315.183838,131.344498 324.163177,126.603043 332.624023,121.408012 
	C334.093811,120.505569 336.663727,121.394928 338.725525,121.456688 
	C338.653931,123.499733 339.209869,125.844002 338.399384,127.532341 
	C335.305817,133.976593 331.477966,140.073105 328.471954,146.553497 
	C324.014618,156.162720 319.146210,165.720688 316.074707,175.794968 
	C312.865814,186.319962 320.308411,197.236740 330.395782,197.988251 
	C335.551392,198.372330 341.416321,198.135529 345.947662,196.014862 
	C353.680054,192.396088 361.717377,188.179428 367.669739,182.249603 
	C383.213684,166.764420 397.722412,150.238098 412.592987,134.080078 
	C418.010101,128.193954 423.283203,122.175323 428.370972,116.497269 
	C430.050323,119.006676 431.047760,121.060158 432.543884,122.641930 
	C442.718781,133.399277 442.753418,135.124603 434.124237,147.258224 
	C427.676910,156.323853 420.726410,165.187317 415.550659,174.961884 
	C409.189941,186.974152 417.285492,198.890839 430.874054,199.214920 
	C439.823151,199.428329 447.355347,195.624817 454.447235,190.840637 
	C459.345032,187.536636 463.896027,183.718658 468.853760,179.938431 
	C468.853760,182.113754 468.797180,183.873367 468.863037,185.628387 
	C469.270660,196.487808 476.033417,202.968750 486.731110,201.383163 
	C492.624451,200.509659 498.953064,198.575226 503.757812,195.218689 
	C512.705505,188.967957 520.689087,181.335617 529.056030,174.257172 
	C530.043518,173.421783 530.918884,172.453766 532.750183,170.663498 
	C532.430481,173.496750 532.230408,174.804214 532.142639,176.119171 
	C531.248230,189.525681 539.830566,198.319687 553.115234,197.079086 
	C556.801086,196.734863 560.551270,195.268463 563.913391,193.596039 
	C575.453491,187.855652 584.202942,178.628204 593.026123,169.534760 
	C593.852661,168.682907 594.780823,167.929596 595.591370,167.194382 
	C595.984741,172.651505 596.120361,177.797775 596.768982,182.878540 
	C598.313538,194.978455 606.715698,202.395584 618.756775,202.166229 
	C631.171509,201.929764 641.303467,195.823257 650.751404,188.595932 
	C657.160522,183.693192 663.094299,178.169022 669.815857,172.431793 
	C669.651489,174.920868 669.492249,176.818054 669.405945,178.718582 
	C668.688538,194.506317 679.029175,202.366653 692.703552,200.362381 
	C704.903625,198.574203 714.370300,191.587433 723.870117,184.591141 
	C726.430359,182.705688 728.851440,180.631454 732.269836,177.897247 
	C732.002808,180.087891 732.033630,180.918243 731.790955,181.658981 
	C729.314087,189.217743 730.317200,193.463074 737.311523,196.883347 
	C742.695496,199.516159 748.795837,201.411575 754.743835,202.025543 
	C771.880493,203.794434 787.002747,197.200684 801.370544,188.833954 
	C815.164490,180.801346 827.190369,170.658493 836.378601,157.412766 
	C838.438660,154.443054 838.373352,151.547638 835.429810,149.569275 
	C832.457458,147.571518 831.117554,150.538193 829.534485,152.380981 
	C819.902588,163.593430 808.819580,173.015671 795.236694,179.303116 
M149.509033,21.127024 
	C160.482498,21.169649 166.555389,28.554251 164.684982,39.426163 
	C163.118988,48.528564 157.990051,55.555431 151.970306,62.163418 
	C149.976257,64.352318 147.879364,66.693329 146.728455,69.353691 
	C144.280716,75.011673 147.596207,79.832191 153.616104,78.954597 
	C157.137283,78.441269 161.144318,76.743690 163.605362,74.262329 
	C173.906891,63.875713 178.746536,51.151340 178.487457,36.389626 
	C178.190125,19.446573 167.405182,8.550683 150.479156,9.048706 
	C133.339081,9.553028 118.087669,16.285233 104.043846,25.315266 
	C63.903545,51.125069 37.019497,87.958397 18.282888,131.160172 
	C13.165558,142.959412 10.253250,155.285675 12.170857,168.521301 
	C15.493587,191.455276 33.966187,210.171539 62.119694,204.415497 
	C80.925865,200.570541 96.629013,190.818344 111.526031,179.468643 
	C117.776268,174.706726 123.525810,169.287613 130.322220,163.465485 
	C129.688599,166.189346 129.459961,168.116150 128.794388,169.877884 
	C124.916862,180.141373 120.817970,190.322708 117.053596,200.626709 
	C115.673241,204.405075 113.560570,206.295822 109.514030,207.360596 
	C86.823021,213.331406 66.235191,223.442459 49.002895,239.688873 
	C38.957767,249.159317 31.430693,260.057770 29.805773,274.257629 
	C28.587124,284.907166 33.703239,293.852203 43.133629,295.750061 
	C47.568165,296.642487 52.505692,296.524597 56.949306,295.594238 
	C68.690041,293.136078 78.296471,286.469696 86.814568,278.323456 
	C104.832947,261.091614 117.194031,240.108826 126.488907,217.198303 
	C127.715187,214.175690 129.050934,212.221985 132.666382,211.815384 
	C137.749496,211.243713 142.815964,210.207443 147.767380,208.905243 
	C150.545227,208.174683 154.907578,208.232468 154.270737,203.635742 
	C153.646835,199.132492 149.633667,200.065964 146.651642,200.270050 
	C142.053223,200.584732 137.486374,201.361099 132.537781,201.988312 
	C132.974335,200.571075 133.262192,199.490891 133.636978,198.441742 
	C139.005844,183.412720 144.508682,168.430115 149.719955,153.346771 
	C153.025940,143.778030 156.044495,134.101730 158.839645,124.372467 
	C159.339508,122.632561 158.745560,119.699501 157.512100,118.591301 
	C156.313446,117.514389 153.005203,117.184959 151.745132,118.089684 
	C148.508362,120.413681 145.554230,123.344429 143.124557,126.520302 
	C140.626999,129.784912 139.399597,134.082138 136.710281,137.127274 
	C129.778885,144.975754 122.827431,152.924423 115.012230,159.849213 
	C99.936424,173.207382 83.100456,183.840881 63.209282,188.680573 
	C47.490864,192.504974 36.037346,185.868240 33.464085,169.914307 
	C32.017395,160.944977 32.467022,151.300537 34.013927,142.295486 
	C37.111748,124.262070 46.388077,108.751945 56.712894,93.910088 
	C74.976784,67.655869 96.092216,44.269245 124.834816,29.198420 
	C132.162964,25.355993 140.667679,23.757479 149.509033,21.127024 
M739.211182,61.047050 
	C731.170410,58.980011 723.046570,63.152363 720.364746,70.726402 
	C718.191772,76.863365 720.994324,80.917900 727.331726,81.210449 
	C732.921753,81.468506 737.331299,79.053467 741.249939,75.534843 
	C746.523438,70.799652 745.968079,65.321655 739.211182,61.047050 
z"/>
<path fill="#070707" opacity="1.000000" stroke="none" 
	d="
M795.596924,179.784500 
	C808.819580,173.015671 819.902588,163.593430 829.534485,152.380981 
	C831.117554,150.538193 832.457458,147.571518 835.429810,149.569275 
	C838.373352,151.547638 838.438660,154.443054 836.378601,157.412766 
	C827.190369,170.658493 815.164490,180.801346 801.370544,188.833954 
	C787.002747,197.200684 771.880493,203.794434 754.743835,202.025543 
	C748.795837,201.411575 742.695496,199.516159 737.311523,196.883347 
	C730.317200,193.463074 729.314087,189.217743 731.790955,181.658981 
	C732.033630,180.918243 732.002808,180.087891 732.269836,177.897247 
	C728.851440,180.631454 726.430359,182.705688 723.870117,184.591141 
	C714.370300,191.587433 704.903625,198.574203 692.703552,200.362381 
	C679.029175,202.366653 668.688538,194.506317 669.405945,178.718582 
	C669.492249,176.818054 669.651489,174.920868 669.815857,172.431793 
	C663.094299,178.169022 657.160522,183.693192 650.751404,188.595932 
	C641.303467,195.823257 631.171509,201.929764 618.756775,202.166229 
	C606.715698,202.395584 598.313538,194.978455 596.768982,182.878540 
	C596.120361,177.797775 595.984741,172.651505 595.591370,167.194382 
	C594.780823,167.929596 593.852661,168.682907 593.026123,169.534760 
	C584.202942,178.628204 575.453491,187.855652 563.913391,193.596039 
	C560.551270,195.268463 556.801086,196.734863 553.115234,197.079086 
	C539.830566,198.319687 531.248230,189.525681 532.142639,176.119171 
	C532.230408,174.804214 532.430481,173.496750 532.750183,170.663498 
	C530.918884,172.453766 530.043518,173.421783 529.056030,174.257172 
	C520.689087,181.335617 512.705505,188.967957 503.757812,195.218689 
	C498.953064,198.575226 492.624451,200.509659 486.731110,201.383163 
	C476.033417,202.968750 469.270660,196.487808 468.863037,185.628387 
	C468.797180,183.873367 468.853760,182.113754 468.853760,179.938431 
	C463.896027,183.718658 459.345032,187.536636 454.447235,190.840637 
	C447.355347,195.624817 439.823151,199.428329 430.874054,199.214920 
	C417.285492,198.890839 409.189941,186.974152 415.550659,174.961884 
	C420.726410,165.187317 427.676910,156.323853 434.124237,147.258224 
	C442.753418,135.124603 442.718781,133.399277 432.543884,122.641930 
	C431.047760,121.060158 430.050323,119.006676 428.370972,116.497269 
	C423.283203,122.175323 418.010101,128.193954 412.592987,134.080078 
	C397.722412,150.238098 383.213684,166.764420 367.669739,182.249603 
	C361.717377,188.179428 353.680054,192.396088 345.947662,196.014862 
	C341.416321,198.135529 335.551392,198.372330 330.395782,197.988251 
	C320.308411,197.236740 312.865814,186.319962 316.074707,175.794968 
	C319.146210,165.720688 324.014618,156.162720 328.471954,146.553497 
	C331.477966,140.073105 335.305817,133.976593 338.399384,127.532341 
	C339.209869,125.844002 338.653931,123.499733 338.725525,121.456680 
	C336.663727,121.394928 334.093811,120.505569 332.624023,121.408012 
	C324.163177,126.603043 315.183838,131.344498 307.828674,137.871841 
	C289.977081,153.714279 273.999817,171.349838 261.514404,191.920959 
	C259.982819,194.444412 257.400330,197.181458 254.741776,198.007660 
	C247.184830,200.356155 242.080765,194.827225 244.086899,187.042938 
	C244.953415,183.680634 246.034317,180.373840 246.972412,177.029114 
	C247.035065,176.805679 246.712219,176.474121 246.531799,176.120575 
	C241.859436,179.989563 237.378555,184.075500 232.520340,187.648331 
	C220.717606,196.328369 207.728577,201.585220 192.726288,201.273849 
	C172.408325,200.852188 160.149994,185.402054 164.986847,165.616577 
	C169.702606,146.326401 181.141220,131.129013 195.183548,117.706352 
	C203.685059,109.579979 213.246872,103.015823 224.804077,99.864388 
	C225.601196,99.647034 226.375137,99.261955 227.182846,99.179169 
	C233.893097,98.491402 240.822708,97.744186 245.572556,103.893669 
	C250.231857,109.925873 248.599350,116.550812 245.949951,122.854240 
	C241.377411,133.733124 233.378464,141.827881 223.236008,147.301804 
	C210.676575,154.080185 197.654251,160.022247 184.677567,165.990051 
	C181.726044,167.347397 180.284531,168.512772 180.324860,172.006912 
	C180.459137,183.643356 187.789490,189.731949 200.032791,188.574020 
	C214.860794,187.171616 226.635391,179.693924 237.601944,170.496872 
	C253.736694,156.965546 267.004059,141.248993 276.024170,121.940781 
	C279.135132,115.281578 284.225433,109.503036 288.743042,103.574821 
	C289.925262,102.023430 292.380615,100.528305 294.195557,100.592072 
	C296.770355,100.682518 300.362579,101.551949 301.533966,103.368912 
	C302.673615,105.136658 302.130005,108.988083 300.910400,111.112000 
	C294.308502,122.609001 287.267517,133.853836 280.377838,145.185577 
	C280.784241,145.602127 281.190674,146.018692 281.597076,146.435242 
	C282.906738,145.370895 284.389984,144.461456 285.499237,143.218292 
	C296.987946,130.343018 309.301788,118.409721 324.917389,110.618797 
	C329.597687,108.283714 334.796051,106.685188 339.938049,105.637695 
	C352.085754,103.163055 360.650299,112.091484 356.901459,123.836784 
	C354.400757,131.671677 350.306366,139.032120 346.580658,146.431396 
	C343.367249,152.813278 339.414703,158.827164 336.288391,165.246964 
	C334.727112,168.453003 333.726501,172.159637 333.450134,175.715836 
	C332.897308,182.829346 336.768311,185.955063 343.362885,183.386215 
	C348.381897,181.431107 353.374237,178.739716 357.521393,175.332657 
	C373.474243,162.226761 386.578461,146.530930 397.454803,129.011658 
	C400.777466,123.659607 403.648834,118.183678 401.575439,111.260460 
	C400.404602,107.350922 403.368958,104.814659 408.500031,104.189323 
	C413.378784,103.594727 416.906647,105.752380 417.546997,109.882896 
	C417.771393,111.330322 417.582794,112.841766 417.582794,115.754631 
	C419.934296,112.782875 421.362885,110.741272 423.030640,108.918488 
	C426.623627,104.991417 430.179657,101.004562 434.073944,97.390335 
	C435.966125,95.634270 438.489471,93.845039 440.902008,93.561974 
	C443.352020,93.274498 446.642822,94.159157 448.376160,95.792542 
	C449.601654,96.947372 449.773071,100.728394 448.811493,102.431847 
	C444.945801,109.279984 446.220032,114.691635 451.177612,120.547585 
	C458.502960,129.200333 458.824493,135.395462 452.713348,145.126755 
	C447.412659,153.567444 441.315918,161.505981 435.652924,169.722900 
	C434.147949,171.906586 432.752441,174.209152 431.641388,176.611938 
	C429.194214,181.904465 431.743530,185.629410 437.605286,185.081268 
	C440.173523,184.841125 442.878754,184.019547 445.129395,182.760559 
	C459.735504,174.590012 472.092865,163.962524 480.792725,149.420959 
	C492.128174,130.474091 506.702332,114.776260 526.709534,104.796570 
	C537.611694,99.358566 549.092896,96.209702 561.336182,99.233742 
	C564.609619,100.042274 567.868042,101.757347 570.571350,103.799988 
	C573.498779,106.011925 575.704651,109.086266 574.167175,113.316399 
	C572.479492,117.960030 569.269531,120.873650 564.375854,121.405739 
	C563.320557,121.520485 561.476807,120.166771 561.022644,119.065956 
	C558.524048,113.010323 553.679688,110.205460 547.158447,111.454765 
	C537.242493,113.354424 528.836792,118.262024 521.278809,124.714035 
	C507.337341,136.615433 495.306305,150.072052 488.018280,167.167786 
	C486.599518,170.495789 485.644165,174.091141 484.989258,177.657562 
	C484.142395,182.269287 486.625793,185.546387 491.261047,185.021454 
	C495.345337,184.558914 499.824371,183.289917 503.130280,180.959869 
	C521.262695,168.179993 536.100952,152.034088 549.553528,134.485016 
	C551.898865,131.425400 555.372620,128.212875 558.898865,127.309120 
	C564.534973,125.864616 566.954163,129.771744 564.230530,135.010529 
	C560.708862,141.784302 556.412598,148.198013 553.384033,155.172440 
	C550.778748,161.172134 548.626648,167.634903 547.827881,174.085312 
	C546.830933,182.136353 551.895752,185.742935 559.403320,182.293304 
	C565.795227,179.356323 572.001953,175.420578 577.264221,170.766205 
	C584.470703,164.392166 590.826355,157.028290 597.276001,149.845657 
	C598.961487,147.968643 599.887146,145.277084 600.752686,142.815781 
	C614.009277,105.120224 629.483826,68.459442 652.540527,35.551476 
	C658.122192,27.585045 665.107483,20.534582 671.945984,13.551218 
	C674.486816,10.956540 678.283691,9.271579 681.809326,8.024637 
	C690.593140,4.918034 696.404602,9.298853 696.829285,18.656477 
	C697.594421,35.515965 691.676514,50.567772 684.289917,65.174011 
	C674.827026,83.885841 661.722961,100.011963 647.872620,115.583969 
	C637.692322,127.029686 627.044922,138.123810 617.721802,150.233902 
	C614.390198,154.561386 613.883667,161.338440 612.948425,167.136261 
	C612.359619,170.786743 612.955627,174.783600 613.746887,178.469055 
	C615.378418,186.068512 620.140808,188.950577 627.640442,187.501541 
	C639.996033,185.114227 649.197266,177.330643 658.003662,169.208191 
	C667.939209,160.044357 676.407471,149.754059 682.713074,137.507828 
	C688.086304,127.072578 695.085144,117.468590 701.476868,107.569244 
	C702.538269,105.925285 704.034912,104.479279 705.572815,103.243294 
	C708.789429,100.658142 712.543335,100.183380 715.608459,102.992737 
	C718.574097,105.710854 717.079346,108.966652 715.380127,112.088737 
	C706.663452,128.104156 697.761719,144.032272 689.611389,160.334198 
	C687.185974,165.185349 686.309998,171.101990 685.929016,176.613708 
	C685.406921,184.166245 690.683777,187.847549 698.064026,185.707565 
	C708.140381,182.785812 716.059875,176.249771 723.147156,169.016235 
	C732.083252,159.895554 740.232605,150.004364 748.740784,140.462952 
	C749.248840,139.893250 750.121216,138.936981 750.499756,139.071716 
	C755.033997,140.685669 756.598022,136.922867 758.441895,134.438309 
	C766.453430,123.642616 774.150574,112.614098 782.114258,101.782127 
	C785.525085,97.142731 788.691833,91.935501 795.630981,92.074417 
	C801.014282,92.182182 804.368652,97.202255 800.901062,101.198601 
	C791.100464,112.493553 794.889832,125.427734 795.483154,137.940628 
	C796.118591,151.342148 798.684631,164.734131 794.573242,178.553772 
	C794.285461,179.482651 794.235474,179.905090 794.185486,180.327545 
	C794.655945,180.146530 795.126465,179.965515 795.596924,179.784500 
M678.461182,44.955013 
	C680.252991,38.616863 683.261597,32.442253 681.423096,24.455225 
	C678.274780,26.616020 675.489441,27.899035 673.562195,29.977680 
	C669.168335,34.716629 664.274719,39.341549 661.224548,44.911144 
	C652.255005,61.289680 643.769165,77.955170 635.718811,94.806831 
	C630.785400,105.133797 626.999573,116.008972 622.698364,126.637955 
	C623.067200,126.912956 623.435974,127.187958 623.804749,127.462952 
	C624.907776,126.506119 626.166992,125.679077 627.087646,124.570786 
	C632.078491,118.562691 636.992493,112.490601 641.920349,106.430321 
	C656.953369,87.942780 670.265442,68.429939 678.461182,44.955013 
M756.521179,153.030411 
	C749.189392,160.708771 741.857605,168.387146 735.344604,175.208023 
	C737.674927,176.282776 741.437988,176.818039 743.019409,178.962296 
	C748.849915,186.867645 756.886292,186.964523 765.038269,185.796295 
	C773.653320,184.561737 779.272400,179.531006 779.629395,171.200150 
	C780.273376,156.173965 779.551758,141.089249 779.394165,125.396561 
	C771.358032,135.117905 764.174805,143.807480 756.521179,153.030411 
M191.924606,142.461761 
	C189.460236,146.793213 186.995865,151.124664 184.531479,155.456131 
	C190.102463,153.492493 194.974777,151.279236 199.375519,148.356033 
	C208.748611,142.129944 218.266098,136.005615 226.908508,128.853638 
	C230.234390,126.101318 231.663986,120.789734 233.332138,116.406219 
	C234.275772,113.926575 232.888474,111.403542 229.722076,112.236023 
	C225.185989,113.428596 220.325699,114.500557 216.477570,116.980034 
	C206.585327,123.353920 199.002945,132.229614 191.924606,142.461761 
z"/>
<path fill="#070707" opacity="1.000000" stroke="none" 
	d="
M149.070419,21.127502 
	C140.667679,23.757479 132.162964,25.355993 124.834816,29.198420 
	C96.092216,44.269245 74.976784,67.655869 56.712894,93.910088 
	C46.388077,108.751945 37.111748,124.262070 34.013927,142.295486 
	C32.467022,151.300537 32.017395,160.944977 33.464085,169.914307 
	C36.037346,185.868240 47.490864,192.504974 63.209282,188.680573 
	C83.100456,183.840881 99.936424,173.207382 115.012230,159.849213 
	C122.827431,152.924423 129.778885,144.975754 136.710281,137.127274 
	C139.399597,134.082138 140.626999,129.784912 143.124557,126.520302 
	C145.554230,123.344429 148.508362,120.413681 151.745132,118.089684 
	C153.005203,117.184959 156.313446,117.514389 157.512100,118.591301 
	C158.745560,119.699501 159.339508,122.632561 158.839645,124.372467 
	C156.044495,134.101730 153.025940,143.778030 149.719955,153.346771 
	C144.508682,168.430115 139.005844,183.412720 133.636978,198.441742 
	C133.262192,199.490891 132.974335,200.571075 132.537781,201.988312 
	C137.486374,201.361099 142.053223,200.584732 146.651642,200.270050 
	C149.633667,200.065964 153.646835,199.132492 154.270737,203.635742 
	C154.907578,208.232468 150.545227,208.174683 147.767380,208.905243 
	C142.815964,210.207443 137.749496,211.243713 132.666382,211.815384 
	C129.050934,212.221985 127.715187,214.175690 126.488907,217.198303 
	C117.194031,240.108826 104.832947,261.091614 86.814568,278.323456 
	C78.296471,286.469696 68.690041,293.136078 56.949306,295.594238 
	C52.505692,296.524597 47.568165,296.642487 43.133629,295.750061 
	C33.703239,293.852203 28.587124,284.907166 29.805773,274.257629 
	C31.430693,260.057770 38.957767,249.159317 49.002895,239.688873 
	C66.235191,223.442459 86.823021,213.331406 109.514030,207.360596 
	C113.560570,206.295822 115.673241,204.405075 117.053596,200.626709 
	C120.817970,190.322708 124.916862,180.141373 128.794388,169.877884 
	C129.459961,168.116150 129.688599,166.189346 130.322220,163.465485 
	C123.525810,169.287613 117.776268,174.706726 111.526031,179.468643 
	C96.629013,190.818344 80.925865,200.570541 62.119694,204.415497 
	C33.966187,210.171539 15.493587,191.455276 12.170857,168.521301 
	C10.253250,155.285675 13.165558,142.959412 18.282888,131.160172 
	C37.019497,87.958397 63.903545,51.125069 104.043846,25.315266 
	C118.087669,16.285233 133.339081,9.553028 150.479156,9.048706 
	C167.405182,8.550683 178.190125,19.446573 178.487457,36.389626 
	C178.746536,51.151340 173.906891,63.875713 163.605362,74.262329 
	C161.144318,76.743690 157.137283,78.441269 153.616104,78.954597 
	C147.596207,79.832191 144.280716,75.011673 146.728455,69.353691 
	C147.879364,66.693329 149.976257,64.352318 151.970306,62.163418 
	C157.990051,55.555431 163.118988,48.528564 164.684982,39.426163 
	C166.555389,28.554251 160.482498,21.169649 149.070419,21.127502 
M106.702148,226.093933 
	C107.622177,223.896790 108.542198,221.699646 109.888199,218.485229 
	C88.589455,225.625229 71.034904,236.277939 57.340389,252.545471 
	C53.370991,257.260681 50.172260,263.008087 48.055489,268.806274 
	C45.151478,276.760895 50.551971,281.750519 58.842442,279.671967 
	C70.037804,276.865082 78.853241,270.134521 85.258171,261.086945 
	C93.000397,250.150314 99.393669,238.258743 106.702148,226.093933 
z"/>
<path fill="#070707" opacity="1.000000" stroke="none" 
	d="
M739.596375,61.127029 
	C745.968079,65.321655 746.523438,70.799652 741.249939,75.534843 
	C737.331299,79.053467 732.921753,81.468506 727.331726,81.210449 
	C720.994324,80.917900 718.191772,76.863365 720.364746,70.726402 
	C723.046570,63.152363 731.170410,58.980011 739.596375,61.127029 
z"/>
<path fill="#F6F6F7" opacity="1.000000" stroke="none" 
	d="
M678.274963,45.303261 
	C670.265442,68.429939 656.953369,87.942780 641.920349,106.430321 
	C636.992493,112.490601 632.078491,118.562691 627.087646,124.570786 
	C626.166992,125.679077 624.907776,126.506119 623.804749,127.462952 
	C623.435974,127.187958 623.067200,126.912956 622.698364,126.637955 
	C626.999573,116.008972 630.785400,105.133797 635.718811,94.806831 
	C643.769165,77.955170 652.255005,61.289680 661.224548,44.911144 
	C664.274719,39.341549 669.168335,34.716629 673.562195,29.977680 
	C675.489441,27.899035 678.274780,26.616020 681.423096,24.455225 
	C683.261597,32.442253 680.252991,38.616863 678.274963,45.303261 
z"/>
<path fill="#F9F9F9" opacity="1.000000" stroke="none" 
	d="
M756.756348,152.763733 
	C764.174805,143.807480 771.358032,135.117905 779.394165,125.396561 
	C779.551758,141.089249 780.273376,156.173965 779.629395,171.200150 
	C779.272400,179.531006 773.653320,184.561737 765.038269,185.796295 
	C756.886292,186.964523 748.849915,186.867645 743.019409,178.962296 
	C741.437988,176.818039 737.674927,176.282776 735.344604,175.208023 
	C741.857605,168.387146 749.189392,160.708771 756.756348,152.763733 
z"/>
<path fill="#F5F5F5" opacity="1.000000" stroke="none" 
	d="
M192.133209,142.168762 
	C199.002945,132.229614 206.585327,123.353920 216.477570,116.980034 
	C220.325699,114.500557 225.185989,113.428596 229.722076,112.236023 
	C232.888474,111.403542 234.275772,113.926575 233.332138,116.406219 
	C231.663986,120.789734 230.234390,126.101318 226.908508,128.853638 
	C218.266098,136.005615 208.748611,142.129944 199.375519,148.356033 
	C194.974777,151.279236 190.102463,153.492493 184.531479,155.456131 
	C186.995865,151.124664 189.460236,146.793213 192.133209,142.168762 
z"/>
<path fill="#FCFCFD" opacity="1.000000" stroke="none" 
	d="
M795.416809,179.543808 
	C795.126465,179.965515 794.655945,180.146530 794.185486,180.327545 
	C794.235474,179.905090 794.285461,179.482651 794.587158,178.956268 
	C794.971558,179.002625 795.104126,179.152878 795.416809,179.543808 
z"/>
<path fill="#F8F8F8" opacity="1.000000" stroke="none" 
	d="
M106.536453,226.437195 
	C99.393669,238.258743 93.000397,250.150314 85.258171,261.086945 
	C78.853241,270.134521 70.037804,276.865082 58.842442,279.671967 
	C50.551971,281.750519 45.151478,276.760895 48.055489,268.806274 
	C50.172260,263.008087 53.370991,257.260681 57.340389,252.545471 
	C71.034904,236.277939 88.589455,225.625229 109.888199,218.485229 
	C108.542198,221.699646 107.622177,223.896790 106.536453,226.437195 
z"/>
</svg>