<svg version="1.1" id="Layer_1" xmlns="http://www.w3.org/2000/svg" xmlns:xlink="http://www.w3.org/1999/xlink" x="0px" y="0px"
	 width="100%" viewBox="0 0 496 496" enable-background="new 0 0 496 496" xml:space="preserve">
<path fill="#000000" opacity="1.000000" stroke="none" 
	d="
M244.361938,307.576416 
	C254.157333,315.971802 263.280731,315.461731 274.320251,309.376160 
	C292.522308,299.342194 311.651337,290.966949 330.544678,282.227753 
	C334.640442,280.333282 336.482910,277.732819 336.577179,273.559326 
	C336.806580,263.408234 337.575806,253.293274 338.690460,243.209763 
	C339.198059,238.617767 337.571320,237.203857 332.897339,237.240662 
	C306.573883,237.448044 280.247925,237.340714 253.922836,237.336105 
	C252.423859,237.335846 250.921692,237.349442 249.426605,237.261459 
	C246.742249,237.103546 245.644745,235.494919 245.667862,232.947968 
	C245.691284,230.367416 246.927155,228.883865 249.564102,228.734421 
	C250.727386,228.668503 251.895264,228.663864 253.061050,228.663773 
	C282.218597,228.661591 311.376129,228.657562 340.533661,228.669632 
	C347.356018,228.672455 348.660461,230.312485 348.158875,236.909729 
	C347.062805,251.327377 346.019043,265.753723 345.331146,280.194458 
	C345.154083,283.911682 343.896667,285.969299 340.654205,287.511566 
	C315.843292,299.313019 291.143097,311.349915 266.243805,322.960480 
	C261.718109,325.070831 256.318024,324.887115 251.764801,322.288330 
	C226.015457,307.591858 200.279694,292.867645 174.729813,277.829193 
	C169.826065,274.942902 166.889481,269.811493 166.861298,263.885101 
	C166.736084,237.560623 166.732635,211.234802 166.867630,184.910400 
	C166.899536,178.688080 169.994171,173.458313 175.092209,170.225693 
	C200.413925,154.169373 225.864731,138.314056 251.402176,122.602684 
	C256.250000,119.620155 261.908112,119.629433 266.765045,122.710960 
	C291.659821,138.505630 316.424713,154.505081 341.234894,170.433075 
	C341.515228,170.613068 341.793060,170.797043 342.075012,170.974518 
	C344.765747,172.668213 346.486420,174.874847 344.490814,177.985535 
	C342.495422,181.095932 339.872162,180.439270 337.146423,178.679886 
	C319.652618,167.388077 302.121338,156.154312 284.611481,144.887299 
	C277.047272,140.020004 269.472778,135.167206 261.975067,130.199005 
	C260.120544,128.970154 258.799866,128.644714 256.661621,129.989883 
	C231.429688,145.863037 206.141556,161.647949 180.766953,177.291824 
	C177.372528,179.384552 176.117416,181.741455 176.144379,185.733902 
	C176.318756,211.557907 176.301224,237.384064 176.157059,263.208435 
	C176.136887,266.819397 177.227753,268.847473 180.434540,270.673065 
	C201.710419,282.785431 222.852905,295.132111 244.361938,307.576416 
z"/>
<path fill="#000000" opacity="1.000000" stroke="none" 
	d="
M238.615021,228.759674 
	C224.513901,237.786530 210.605057,234.500046 196.693207,229.309082 
	C193.656281,228.175903 195.242737,226.013000 195.843140,224.309265 
	C202.766556,204.663437 215.317444,190.445541 235.614487,183.568649 
	C224.157867,183.306198 208.121582,191.999268 200.032501,202.445435 
	C191.238174,213.802338 188.598953,227.187561 187.564987,241.496628 
	C185.285645,240.403137 185.553009,238.899521 185.405472,237.795868 
	C183.515198,223.655762 184.450699,209.790894 191.146881,196.957260 
	C199.251999,181.423294 213.451141,174.690414 229.864471,171.799377 
	C243.248062,169.441986 256.366211,171.370941 269.252747,175.181503 
	C275.198120,176.939545 275.659515,178.566864 271.354095,182.794449 
	C264.448761,189.574860 260.097778,198.015610 255.614609,206.377792 
	C251.186737,214.636871 246.453873,222.643219 238.615021,228.759674 
z"/>
</svg>