<?xml version="1.0" encoding="UTF-8"?>
<svg version="1.1" xmlns="http://www.w3.org/2000/svg" width="1080" height="1080">
<path d="M0 0 C356.4 0 712.8 0 1080 0 C1080 356.4 1080 712.8 1080 1080 C723.6 1080 367.2 1080 0 1080 C0 723.6 0 367.2 0 0 Z " fill="#FEFEFE" transform="translate(0,0)"/>
<path d="M0 0 C1.43496826 0.91265625 1.43496826 0.91265625 2.89892578 1.84375 C9.23987281 5.88176602 15.56682042 9.94133977 21.89111328 14.00537109 C26.64863404 17.0577462 31.41733317 20.09243886 36.1875 23.125 C37.08307617 23.69452393 37.97865234 24.26404785 38.90136719 24.85083008 C40.70029361 25.99473029 42.49928423 27.13852955 44.29833984 28.28222656 C49.77999701 31.76758169 55.25981689 35.25582535 60.73974609 38.74389648 C65.38384451 41.69972075 70.02890168 44.65401838 74.67578125 47.60546875 C83.58451039 53.26563877 92.48110463 58.9422201 101.33520508 64.6875 C111.85711824 71.50960229 122.43437213 78.24590356 133 85 C157.57782407 100.71141782 157.57782407 100.71141782 168.47070312 107.77856445 C174.79701322 111.87864055 181.14827885 115.93943541 187.5 120 C195.17071727 124.90377997 202.83122825 129.8220469 210.46875 134.77734375 C216.79576857 138.87773848 223.14763166 142.93902167 229.5 147 C237.17071727 151.90377997 244.83122825 156.8220469 252.46875 161.77734375 C258.79576857 165.87773848 265.14763166 169.93902167 271.5 174 C279.17071727 178.90377997 286.83122825 183.8220469 294.46875 188.77734375 C300.79576857 192.87773848 307.14763166 196.93902167 313.5 201 C321.16880464 205.90255725 328.83021625 210.8153813 336.4621582 215.77514648 C340.6617442 218.50014595 344.87833174 221.1968115 349.10546875 223.87890625 C355.4231665 227.88931192 361.7222658 231.92730905 368 236 C369.18142578 236.76521973 369.18142578 236.76521973 370.38671875 237.54589844 C378.64508414 242.95352494 384.54103986 248.08207971 389 257 C390.04313152 264.74897701 388.31076725 270.55005501 384 277 C379.89659208 282.05681933 376.17096306 285.14764239 369.66796875 286.4765625 C355.29873605 287.33645359 341.94996457 276.26229703 330.52001953 268.66015625 C325.54883003 265.38520095 320.51899903 262.20097849 315.5 259 C307.82870345 254.09713278 300.16876596 249.17794934 292.53125 244.22265625 C286.20423143 240.12226152 279.85236834 236.06097833 273.5 232 C265.82928273 227.09622003 258.16877175 222.1779531 250.53125 217.22265625 C244.20423143 213.12226152 237.85236834 209.06097833 231.5 205 C223.82928273 200.09622003 216.16877175 195.1779531 208.53125 190.22265625 C202.20423143 186.12226152 195.85236834 182.06097833 189.5 178 C181.82928273 173.09622003 174.16877175 168.1779531 166.53125 163.22265625 C159.11708042 158.41770404 151.66939415 153.66520431 144.2253418 148.90673828 C138.24265914 145.08069387 132.26907619 141.24154946 126.3125 137.375 C119.89875049 133.21235081 113.4541482 129.0997041 107 125 C97.63378162 119.05000944 88.30642474 113.04295672 79 107 C69.25153791 100.67302386 59.48023443 94.38328049 49.6875 88.125 C40.29021948 82.11850541 30.92201567 76.06961932 21.578125 69.98046875 C18.12190687 67.7281905 14.65876746 65.48702405 11.19140625 63.25195312 C1.92915621 57.27901321 -7.28572573 51.234059 -16.5 45.1875 C-17.54794739 44.49998657 -17.54794739 44.49998657 -18.61706543 43.79858398 C-20.65124951 42.46381878 -22.68510559 41.12855603 -24.71875 39.79296875 C-25.36181091 39.37072021 -26.00487183 38.94847168 -26.66741943 38.51342773 C-30.87445426 35.74803505 -35.06492821 32.95931716 -39.234375 30.13745117 C-44.95457313 26.45238437 -50.30223281 24.75928331 -57 26 C-66.65205216 29.50724495 -75.20626651 35.89441665 -83.73046875 41.51464844 C-87.48083499 43.96916955 -91.27023657 46.36090201 -95.0625 48.75 C-96.22954468 49.48597412 -96.22954468 49.48597412 -97.42016602 50.23681641 C-104.96601216 54.98911335 -112.53124407 59.71041937 -120.09594727 64.43261719 C-126.24192947 68.27073037 -132.37730805 72.1248536 -138.5 76 C-148.61691682 82.40173196 -158.77213711 88.7417097 -168.92822266 95.08105469 C-171.93673794 96.96048007 -174.94330979 98.84297196 -177.94921875 100.7265625 C-189.47617056 107.94682465 -201.03764661 115.10746487 -212.62915039 122.22363281 C-219.82042799 126.64387505 -226.974528 131.11798268 -234.10205078 135.64013672 C-240.64300626 139.78652275 -247.22452334 143.86515837 -253.8137207 147.93432617 C-260.5565568 152.10052601 -267.28137985 156.29487469 -274 160.5 C-282.34059908 165.7196179 -290.69641211 170.91361235 -299.06640625 176.0859375 C-305.72407702 180.20304914 -312.3643585 184.34749237 -319 188.5 C-329.12204066 194.83346149 -339.26620385 201.13023626 -349.42333984 207.40722656 C-353.78362642 210.10255626 -358.14168872 212.80147792 -362.5 215.5 C-364.2499896 216.58335014 -365.99998959 217.66668348 -367.75 218.75 C-368.61625 219.28625 -369.4825 219.8225 -370.375 220.375 C-399.25 238.25 -399.25 238.25 -401.87426758 239.87451172 C-403.6267506 240.95940544 -405.37919191 242.04436653 -407.1315918 243.12939453 C-412.32802859 246.34671872 -417.52583988 249.56180146 -422.7253418 252.77416992 C-424.44805236 253.84011435 -426.1695743 254.90798217 -427.88989258 255.9777832 C-432.6749818 258.95290116 -437.47726161 261.89477373 -442.3046875 264.80078125 C-444.43235606 266.09624841 -446.55996145 267.39181933 -448.6875 268.6875 C-449.6669458 269.26870605 -450.6463916 269.84991211 -451.65551758 270.44873047 C-462.37023901 277.01549282 -472.40380121 285.52419721 -475.54375225 298.1940698 C-476.09309607 301.57254216 -476.13213869 304.79494695 -476.1398077 308.21910191 C-476.14275912 308.93883479 -476.14571055 309.65856767 -476.14875141 310.40011063 C-476.15743237 312.81847382 -476.15902213 315.23678913 -476.16062927 317.65516663 C-476.16536094 319.4039709 -476.17051194 321.15277407 -476.17604691 322.90157598 C-476.18994975 327.71277825 -476.19753566 332.52397294 -476.2040199 337.33519018 C-476.21039262 341.46052925 -476.22046244 345.58585592 -476.23058056 349.71118725 C-476.26389688 363.3018546 -476.28542358 376.8925295 -476.30378041 390.4832243 C-476.30857593 394.0220096 -476.31355918 397.56079459 -476.31858563 401.09957957 C-476.34955514 423.07580289 -476.37623975 445.05202884 -476.39300442 467.02826786 C-476.3969539 472.11804776 -476.4009569 477.20782762 -476.4050293 482.29760742 C-476.40603766 483.56264347 -476.40704602 484.82767951 -476.40808494 486.13104998 C-476.42509264 506.62480735 -476.46620376 527.11844398 -476.51705229 547.61214239 C-476.56882944 568.65318917 -476.59794672 589.69417384 -476.6052013 610.73528379 C-476.60986316 622.54887562 -476.62461076 634.36226967 -476.6649456 646.17579842 C-476.69925419 656.2364953 -476.71318141 666.2969587 -476.70052146 676.35771073 C-476.6946968 681.48942173 -476.69854545 686.62063898 -476.7286911 691.75227547 C-476.75609073 696.45490339 -476.75552688 701.15668764 -476.73318065 705.85933464 C-476.72996315 707.55590064 -476.7367943 709.25252352 -476.75497787 710.94899512 C-476.87239345 722.61554474 -475.28299677 731.81502817 -467.4375 741 C-466.633125 741.66 -465.82875 742.32 -465 743 C-464.23179932 743.63711914 -463.46359863 744.27423828 -462.67211914 744.93066406 C-460.12773088 746.90108296 -457.59993672 748.51432187 -454.80859375 750.109375 C-453.79619629 750.69066162 -452.78379883 751.27194824 -451.74072266 751.87084961 C-450.65065918 752.49096924 -449.5605957 753.11108887 -448.4375 753.75 C-447.27892223 754.41312278 -446.12056077 755.07662361 -444.96240234 755.74047852 C-441.91899553 757.48361278 -438.87270674 759.22164687 -435.82574463 760.95855713 C-432.89642072 762.62950467 -429.96982341 764.3051996 -427.04296875 765.98046875 C-420.03152726 769.99203439 -413.01613566 773.99665278 -406 778 C-389.05141783 787.67071657 -372.12209937 797.37348273 -355.2265625 807.13671875 C-351.96475993 809.0203505 -348.70138156 810.90122321 -345.4375 812.78125 C-333.95040905 819.39909168 -322.48054255 826.04487232 -311.03417969 832.73291016 C-300.47379718 838.89919054 -289.87873234 845.0049595 -279.28222656 851.10888672 C-273.85340058 854.23680148 -268.42680719 857.36858448 -263 860.5 C-260.83334417 861.75001879 -258.6666775 863.00001878 -256.5 864.25 C-252.16666667 866.75 -247.83333333 869.25 -243.5 871.75 C-242.42758057 872.36866943 -241.35516113 872.98733887 -240.25024414 873.62475586 C-238.08264444 874.87536303 -235.91516404 876.12617699 -233.74780273 877.37719727 C-228.34636846 880.49461038 -222.94293862 883.60845403 -217.53515625 886.71484375 C-205.34501584 893.72270225 -193.21208141 900.81740585 -181.12768555 908.00610352 C-173.24407299 912.68897966 -165.32265064 917.3017352 -157.375 921.875 C-156.29476563 922.49769775 -155.21453125 923.12039551 -154.1015625 923.76196289 C-149.38860776 926.47793365 -144.67227945 929.18739819 -139.9453125 931.87890625 C-133.0519462 935.8303769 -126.67124943 939.82472223 -120.55859375 944.9375 C-107.95137512 955.10026555 -92.80020209 963.99657042 -77 968 C-75.989375 968.27585937 -74.97875 968.55171875 -73.9375 968.8359375 C-41.66653751 976.54982985 -9.71133431 966.21940817 18.77539062 951.171875 C21.2854084 949.84965317 23.80618915 948.54934133 26.328125 947.25 C36.01532487 942.2447676 45.63445862 937.13167311 55.1875 931.875 C62.81973605 927.67716838 70.51236424 923.64848026 78.33862305 919.82373047 C83.09793253 917.48861683 87.79857196 915.05757153 92.48184204 912.57437134 C102.99213589 907.00230022 113.60988925 901.6916593 124.3125 896.5 C125.18551758 896.07546539 126.05853516 895.65093079 126.95800781 895.21353149 C152.60357289 882.74330606 178.34424488 870.48884667 204.33154297 858.74609375 C215.2929708 853.79130194 226.21422002 848.75277174 237.125 843.6875 C238.85562987 842.88427382 240.58626138 842.08105116 242.31689453 841.27783203 C244.92473987 840.06741143 247.53256641 838.85695044 250.14031982 837.64633179 C258.8165026 833.61925313 267.49815767 829.60406927 276.1824646 825.59454346 C278.657686 824.4512707 281.13222404 823.306529 283.60668945 822.16162109 C290.37835911 819.03139477 297.15324387 815.9147025 303.9765625 812.8984375 C325.61231235 803.40923584 325.61231235 803.40923584 339.375 784.875 C339.9374348 783.25707081 340.48143514 781.63251899 341 780 C341.5878125 778.3603125 341.5878125 778.3603125 342.1875 776.6875 C344.50261416 766.18044344 344.17892922 755.10383126 344.38815308 744.38162231 C344.70541684 728.66774607 345.49190496 713.05784798 346.74707031 697.38867188 C347.00272607 693.96347703 347.20876833 690.53882468 347.3984375 687.109375 C348.07860727 674.99379952 348.9630457 662.946015 350.23828125 650.87890625 C350.40693443 649.27705223 350.40693443 649.27705223 350.57899475 647.64283752 C351.14252291 642.32459187 351.72201876 637.00866561 352.32348633 631.69458008 C353.40032914 621.95200424 354.2496838 612.25081417 354.3984375 602.4453125 C354.43525131 601.16888382 354.43525131 601.16888382 354.47280884 599.8666687 C354.4759327 594.08511944 353.3453971 590.74177631 350 586 C343.9023601 581.0953766 338.02689398 579.69647586 330.33432961 579.74946022 C329.57847702 579.74666254 328.82262444 579.74386487 328.04386723 579.74098241 C325.50862477 579.73401833 322.97362402 579.74128372 320.43838501 579.7484436 C318.60337085 579.74630513 316.76835755 579.74327978 314.93334615 579.73944318 C309.88862208 579.7313954 304.84397205 579.73571366 299.79924822 579.74196196 C294.35947132 579.74649126 288.91970864 579.73945791 283.47993469 579.73365784 C274.05260334 579.72502036 264.62529075 579.72321778 255.19795609 579.72560501 C241.5588574 579.72870017 227.91980028 579.71707261 214.28071205 579.70105521 C192.14124678 579.67508512 170.00178106 579.65503779 147.86230469 579.64160156 C146.86861228 579.64099251 146.86861228 579.64099251 145.85484527 579.64037116 C130.398124 579.6309429 114.94140419 579.62407697 99.48468018 579.62164307 C98.8198491 579.6215365 98.15501803 579.62142994 97.47004056 579.62132015 C94.11761298 579.62078698 90.76518539 579.62027223 87.4127578 579.61975877 C86.75018945 579.61965656 86.08762111 579.61955435 85.40497494 579.61944905 C84.06764305 579.61924349 82.73031116 579.61904093 81.39297927 579.61884138 C58.67141326 579.61536482 35.94989402 579.59668944 13.228351 579.56404626 C-0.3778881 579.54511689 -13.98401175 579.53917929 -27.5902604 579.54986344 C-36.91174904 579.55617625 -46.2331548 579.54815977 -55.55462526 579.52880932 C-60.93483345 579.51811302 -66.31484045 579.51400018 -71.69504738 579.52728081 C-76.61995556 579.5393157 -81.54448619 579.53300575 -86.4693615 579.51208882 C-88.25127452 579.50778007 -90.03321937 579.51023646 -91.81511013 579.52012999 C-108.4090438 579.60557767 -108.4090438 579.60557767 -115 575 C-120.95545915 568.88781824 -121.45808017 562.56220397 -121.42944336 554.38769531 C-121.26345386 548.34437579 -120.38982182 544.35385335 -116 540 C-107.98223189 532.98315736 -97.61825497 534.31168619 -87.65518188 534.38526917 C-85.66297044 534.38165478 -83.67076197 534.3758497 -81.67856252 534.36804718 C-76.21300458 534.35300107 -70.74791588 534.36910564 -65.28239489 534.3903538 C-59.38452519 534.40784093 -53.48670206 534.39646498 -47.58882141 534.38868713 C-36.03783441 534.37801347 -24.48702968 534.39396637 -12.93607046 534.4188254 C-3.54754589 534.43855432 5.84093599 534.44711472 15.22948074 534.44773674 C16.23056644 534.44781691 16.23056644 534.44781691 17.25187609 534.44789871 C19.96114617 534.44808732 22.67041624 534.44820888 25.37968632 534.44824103 C50.78996841 534.44858177 76.20015655 534.47563257 101.61040272 534.51643313 C124.17517295 534.55255013 146.73988856 534.5716955 169.3046875 534.57446289 C170.02201907 534.57455439 170.73935065 534.5746459 171.47841954 534.57474018 C173.64858432 534.57501661 175.81874911 534.5752881 177.98891389 534.5755592 C180.87151742 534.57592224 183.75412095 534.57629564 186.63672447 534.57667637 C187.34803108 534.5767666 188.05933769 534.57685682 188.79219905 534.57694978 C211.03516399 534.57993366 233.27811882 534.59740362 255.52107417 534.61736398 C262.89714886 534.62397453 270.27322196 534.62966622 277.64929914 534.63255429 C278.31266737 534.63281547 278.97603559 534.63307664 279.65950588 534.63334573 C280.32147951 534.63360486 280.98345313 534.63386398 281.66548656 534.63413096 C294.42605 534.63918359 307.18657111 534.65063084 319.94711278 534.67543126 C325.7772651 534.68664159 331.60737594 534.69476831 337.43754005 534.69429779 C342.77688468 534.6939889 348.11613127 534.70295234 353.45545025 534.71926581 C355.38470007 534.7235749 357.31396086 534.72455888 359.24321358 534.72183973 C389.58880748 534.68511295 389.58880748 534.68511295 397.8203125 542.79296875 C403.65213208 550.07569997 404.33185299 557.17935669 404.2265625 566.22265625 C404.22000641 567.19501724 404.21345032 568.16737823 404.20669556 569.16920471 C404.09877925 577.74314227 403.46028016 586.21626994 402.63323975 594.74627686 C399.77493423 624.5338602 398.13134178 654.41977812 396.2963419 684.28309631 C396.04783162 688.32664822 395.79878455 692.37016681 395.54935265 696.41366196 C395.42821864 698.37766214 395.30727775 700.34167424 395.18653297 702.30569839 C394.44349507 714.36639983 393.61523952 726.41253149 392.64170837 738.45704651 C391.80188279 749.0637696 391.35708132 759.68219244 390.9375 770.3125 C389.05522857 816.93882868 389.05522857 816.93882868 377.57421875 828.88671875 C370.69264717 834.53608176 362.8815117 838.04119402 354.8125 841.6875 C352.30616194 842.83197927 349.80288082 843.98300514 347.30078125 845.13671875 C346.64010651 845.44133026 345.97943176 845.74594177 345.29873657 846.05978394 C336.97259067 849.91580539 328.74045449 853.96506989 320.5 858 C309.881834 863.19556188 299.24677582 868.3246991 288.5 873.25 C272.96729022 880.3776648 257.65390528 887.95260795 242.31155396 895.47875977 C241.36698334 895.94209717 240.42241272 896.40543457 239.44921875 896.8828125 C238.0561702 897.56621704 238.0561702 897.56621704 236.63497925 898.26342773 C228.23528949 902.38114732 219.8043051 906.42941811 211.35546875 910.4453125 C207.28674384 912.38044718 203.22958793 914.33849334 199.17578125 916.3046875 C187.36900031 922.03116343 175.54650064 927.70209901 163.625 933.1875 C151.3123881 938.85637465 139.13364661 944.78227542 126.96051025 950.74362183 C115.41637638 956.39428002 103.83037864 961.92016431 92.15234375 967.2890625 C83.54858229 971.25383679 75.01746235 975.35433481 66.5 979.5 C55.74207882 984.73410826 44.94301139 989.86144604 34.07275391 994.85961914 C27.1613158 998.04439661 20.28717223 1001.29448084 13.43359375 1004.6015625 C10.90916692 1005.8147819 8.38442427 1007.02734219 5.85964966 1008.23983765 C4.23641661 1009.02227597 2.61497024 1009.80843476 0.99557495 1010.5987854 C-7.42471853 1014.70723457 -15.82015627 1018.48820936 -24.7109375 1021.47265625 C-25.43987213 1021.71761337 -26.16880676 1021.9625705 -26.91983032 1022.21495056 C-41.41228508 1026.86833977 -60.68015773 1027.36735043 -75 1022 C-76.47533203 1021.48373047 -76.47533203 1021.48373047 -77.98046875 1020.95703125 C-88.11324964 1017.02255838 -97.26286988 1011.31333321 -106.58203125 1005.78125 C-112.8288997 1002.07855724 -119.15144433 998.52471254 -125.5 995 C-134.72987607 989.86472044 -143.87239407 984.59786036 -152.98046875 979.25 C-160.1052819 975.07756041 -167.28546141 971.01504756 -174.5 967 C-183.72414729 961.86656151 -192.86240599 956.60422565 -201.96508789 951.25878906 C-209.23964778 946.99823967 -216.57240396 942.85181081 -223.9375 938.75 C-231.43886574 934.57172043 -238.89697099 930.34164676 -246.27929688 925.95678711 C-252.95612694 922.00093967 -259.69570899 918.15611983 -266.4375 914.3125 C-285.00199657 903.72491847 -303.51367726 893.0483461 -321.96630859 882.2668457 C-333.61685321 875.4638519 -345.3091954 868.73348716 -357 862 C-379.7978388 848.86925665 -402.5288424 835.62763572 -425.22192383 822.31689453 C-431.84360794 818.43337588 -438.46846308 814.55544611 -445.10083008 810.69018555 C-447.02587741 809.56790321 -448.95020054 808.44437768 -450.8737793 807.31958008 C-455.77192686 804.45655814 -460.67733112 801.60746472 -465.60012817 798.78707886 C-468.20438634 797.29298866 -470.80398363 795.79089607 -473.40307617 794.2878418 C-474.65035734 793.5690723 -475.89963048 792.85374544 -477.15112305 792.14233398 C-485.40282621 787.4493956 -492.84203129 782.25699247 -500 776 C-500.99761353 775.13375 -500.99761353 775.13375 -502.01538086 774.25 C-511.12338005 766.11593368 -516.82771199 754.24339461 -521 743 C-521.47554171 741.90425624 -521.47554171 741.90425624 -521.96069032 740.78637624 C-526.32763747 729.07864562 -526.43392453 716.56556436 -526.3742218 704.24981689 C-526.37696915 702.5162665 -526.38102697 700.78271778 -526.38626546 699.04917312 C-526.39676196 694.33116387 -526.38878262 689.61334658 -526.37751496 684.89534593 C-526.36861746 679.78968415 -526.37713229 674.68404601 -526.38337708 669.5783844 C-526.39283413 659.5955329 -526.38629284 649.61275402 -526.37411413 639.62990794 C-526.36045143 627.99474059 -526.36213569 616.35959027 -526.36424746 604.72441694 C-526.36743269 583.96160815 -526.35579536 563.19883375 -526.33618164 542.43603516 C-526.31716967 522.30483962 -526.31009725 502.17368434 -526.31567383 482.04248047 C-526.3217353 460.09602886 -526.32154854 438.14959493 -526.310188 416.20314479 C-526.30898075 413.86202033 -526.30777477 411.52089588 -526.30657005 409.17977142 C-526.30596651 408.02801757 -526.30536298 406.87626372 -526.30474115 405.68960823 C-526.30086697 397.5853395 -526.30125365 389.48107737 -526.3031559 381.37680817 C-526.30528067 371.49941136 -526.30003211 361.62204975 -526.28554235 351.74466285 C-526.27831278 346.7082367 -526.27420911 341.67186175 -526.27878571 336.63543129 C-526.28287728 332.02044654 -526.27765371 327.40556728 -526.26515963 322.79059848 C-526.26224423 321.12600457 -526.2626462 319.46140062 -526.26680271 317.79680935 C-526.32782714 290.90538164 -518.66374069 267.05364265 -499.54003906 247.5078125 C-491.18100726 239.46536861 -481.32577319 233.52946849 -471.47167969 227.51611328 C-467.45487632 225.05223054 -463.47941746 222.52364339 -459.5 220 C-457.91687178 218.99967531 -456.33353818 217.99967558 -454.75 217 C-453.96625 216.505 -453.1825 216.01 -452.375 215.5 C-439.3125 207.25 -439.3125 207.25 -426.25 199 C-425.07497925 198.25786255 -425.07497925 198.25786255 -423.8762207 197.50073242 C-422.28886474 196.49821757 -420.70146221 195.49577646 -419.11401367 194.4934082 C-415.21684605 192.03248037 -411.32042899 189.57038288 -407.42578125 187.10546875 C-397.60567449 180.89274815 -387.76104379 174.72038821 -377.90356445 168.56713867 C-371.75779098 164.72903375 -365.62253883 160.87504949 -359.5 157 C-347.33273812 149.30086096 -335.11191764 141.68741979 -322.89746094 134.06347656 C-319.82722552 132.14688186 -316.75726727 130.22984443 -313.6875 128.3125 C-312.68356201 127.68553223 -311.67962402 127.05856445 -310.64526367 126.41259766 C-304.62518702 122.64998821 -298.62035412 118.86433736 -292.625 115.0625 C-284.12393263 109.67563081 -275.55334335 104.40449188 -266.97631836 99.13964844 C-258.52313777 93.94737716 -250.10319796 88.70393945 -241.6953125 83.4387207 C-232.67536673 77.79156054 -223.62935812 72.18723406 -214.57666016 66.59277344 C-210.21637356 63.89744373 -205.85832864 61.19849409 -201.5 58.5 C-199.74349309 57.41275475 -197.98698268 56.32551516 -196.23046875 55.23828125 C-192.79498973 53.11161695 -189.36013069 50.98395669 -185.92578125 48.85546875 C-175.18074294 42.19750023 -164.42115408 35.56357392 -153.65356445 28.94213867 C-146.92886979 24.80573469 -140.21077018 20.65895165 -133.5 16.5 C-126.0490211 11.88476022 -118.59607 7.27272213 -111.13574219 2.67260742 C-109.50004358 1.66358173 -107.86523817 0.65310855 -106.23046875 -0.35742188 C-67.59863614 -24.16259009 -38.37462526 -24.45158725 0 0 Z " fill="#010101" transform="translate(600,37)"/>
<path d="M0 0 C0.72445313 0.49757813 1.44890625 0.99515625 2.1953125 1.5078125 C4.88029745 3.69326536 4.87923154 4.9151996 5.25 8.4375 C5.14075093 15.28095386 1.07801897 20.89207217 -3.578125 25.6484375 C-4.83529341 26.8578111 -6.10118658 28.05817104 -7.375 29.25 C-12.61072405 34.3149114 -17.46259589 39.43170948 -21.97265625 45.16796875 C-23.89984008 47.59181339 -25.90442978 49.92287163 -27.94824219 52.24829102 C-40.38227899 66.5047108 -50.59201549 82.58096102 -60.125 98.875 C-60.59615234 99.6798584 -61.06730469 100.4847168 -61.55273438 101.31396484 C-70.94067892 117.42325153 -79.8013059 133.82359006 -88.53125 150.296875 C-102.5677492 176.71198792 -117.70512556 202.27142441 -136.125 225.875 C-136.54265625 226.4127002 -136.9603125 226.95040039 -137.390625 227.50439453 C-149.324803 242.68850493 -163.70169617 258.56371554 -180.125 268.875 C-180.69395996 269.23416504 -181.26291992 269.59333008 -181.84912109 269.96337891 C-206.1709215 285.08025406 -236.35262762 294.79628284 -265.0859375 295.11328125 C-265.82577881 295.12293915 -266.56562012 295.13259705 -267.32788086 295.14254761 C-269.71863897 295.16729788 -272.10912761 295.17994283 -274.5 295.1875 C-275.31913879 295.19045074 -276.13827759 295.19340149 -276.98223877 295.19644165 C-291.71285652 295.20846738 -305.65414512 293.73293207 -320.125 290.875 C-321.51881049 290.62997856 -322.91327465 290.38862283 -324.30859375 290.15234375 C-339.78289223 287.37063455 -354.79868211 282.40543293 -369.71334839 277.52078247 C-371.63032202 276.893704 -373.54962717 276.273767 -375.46899414 275.65405273 C-395.84753444 268.88023736 -395.84753444 268.88023736 -399.96166992 263.45141602 C-402.36770853 258.12278529 -400.51141539 252.63464663 -398.6640625 247.31640625 C-398.03857387 245.68524316 -397.39982024 244.05912348 -396.75 242.4375 C-396.3991333 241.54281006 -396.0482666 240.64812012 -395.68676758 239.72631836 C-394.51654623 236.76873015 -393.32405631 233.82101017 -392.125 230.875 C-391.49295654 229.31458984 -391.49295654 229.31458984 -390.84814453 227.72265625 C-368.76948375 173.53181907 -336.57418974 123.3364106 -290.125 86.875 C-289.55330078 86.42543945 -288.98160156 85.97587891 -288.39257812 85.51269531 C-260.83719387 63.9786728 -229.44346565 46.66326884 -196.125 35.875 C-212.64584424 35.37352412 -227.16850146 38.35364196 -242.83837891 43.17285156 C-244.66213433 43.73286871 -246.49220497 44.27230743 -248.32421875 44.8046875 C-284.96944655 56.03899091 -320.18091354 77.84765593 -348.125 103.875 C-349.49575183 105.06740122 -350.87057863 106.25513883 -352.25 107.4375 C-390.18720262 140.66106222 -413.79538105 192.58924307 -425.125 240.875 C-425.35541992 241.83229004 -425.58583984 242.78958008 -425.82324219 243.77587891 C-429.77842336 260.4705455 -432.27581102 277.24442655 -434.4375 294.25 C-434.56655731 295.26042358 -434.69561462 296.27084717 -434.82858276 297.31188965 C-436.28515908 308.81997671 -437.54568548 320.28643327 -438.125 331.875 C-443.77681446 329.15778151 -446.47096366 326.69396906 -449.125 320.875 C-449.93041992 317.18139648 -449.93041992 317.18139648 -450.35546875 313.24609375 C-450.43622147 312.53453629 -450.51697418 311.82297882 -450.60017395 311.08985901 C-450.85244146 308.83207479 -451.08253492 306.57265208 -451.3125 304.3125 C-451.47712461 302.82471522 -451.64313059 301.33708261 -451.81054688 299.84960938 C-452.28901829 295.52836874 -452.71911418 291.20361936 -453.125 286.875 C-453.23320068 285.72338379 -453.34140137 284.57176758 -453.45288086 283.38525391 C-454.30458182 273.05695514 -454.32387531 262.73124251 -454.3125 252.375 C-454.31222809 251.44402496 -454.31195618 250.51304993 -454.31167603 249.55386353 C-454.2933243 235.89239767 -453.93371685 222.4320027 -452.125 208.875 C-451.91661322 207.1653711 -451.70828123 205.45573552 -451.5 203.74609375 C-447.61919591 173.31002887 -439.52115616 144.90946187 -427.125 116.875 C-426.61283936 115.69599121 -426.61283936 115.69599121 -426.09033203 114.49316406 C-418.59727934 97.31508389 -408.98720459 81.37987329 -397.125 66.875 C-396.14080078 65.58722656 -396.14080078 65.58722656 -395.13671875 64.2734375 C-384.08418502 50.06610287 -370.72936538 37.36910631 -356.125 26.875 C-355.50979492 26.42608398 -354.89458984 25.97716797 -354.26074219 25.51464844 C-344.02399649 18.0824906 -333.35139336 11.69430175 -322.125 5.875 C-321.33561035 5.4639502 -320.5462207 5.05290039 -319.73291016 4.62939453 C-283.09247585 -14.20942343 -241.91145349 -24.46200459 -201.125 -29.125 C-200.26777344 -29.22941406 -199.41054688 -29.33382813 -198.52734375 -29.44140625 C-142.68075229 -36.09582665 -48.05906751 -33.87188891 0 0 Z " fill="#000000" transform="translate(619.125,306.125)"/>
</svg>
