<svg version="1.1" id="Layer_1" xmlns="http://www.w3.org/2000/svg" xmlns:xlink="http://www.w3.org/1999/xlink" x="0px" y="0px"
	 width="100%" viewBox="0 0 544 496" enable-background="new 0 0 544 496" xml:space="preserve">
<path fill="#000000" opacity="1.000000" stroke="none" 
	d="
M203.468658,497.000000 
	C195.831345,494.385559 188.606064,491.915527 181.504654,489.129700 
	C159.963348,480.679169 142.129227,467.583588 130.163147,447.364166 
	C125.549980,439.569183 122.467026,431.133789 120.574646,422.284332 
	C119.876961,419.021729 118.453041,417.432648 114.742920,416.913605 
	C73.158890,411.095734 47.916058,378.760406 41.554169,343.168365 
	C39.680550,332.686249 39.954117,322.296265 41.949913,311.981415 
	C42.575474,308.748352 41.619125,306.942566 39.590656,305.029938 
	C26.282269,292.481598 18.069336,277.126831 15.294662,259.108856 
	C10.048536,225.041992 18.080112,194.525848 41.898502,169.240082 
	C48.880699,161.827728 53.442482,154.688141 54.751133,144.258652 
	C59.098557,109.611191 79.184006,86.135246 109.826622,70.968880 
	C124.559196,63.677090 140.316513,59.554123 156.443695,56.834236 
	C159.140503,56.379410 161.011429,55.385708 162.691315,53.329456 
	C181.884445,29.836365 206.616348,15.402555 236.149734,9.261427 
	C266.686859,2.911578 295.088440,7.442492 319.929504,27.449558 
	C329.021912,34.772583 335.898926,44.046070 340.401123,54.797470 
	C342.078674,58.803509 344.281982,59.768112 348.253052,59.736057 
	C367.084930,59.584053 385.919647,59.606884 404.751862,59.754002 
	C411.568909,59.807255 418.393890,60.231068 425.191498,60.780109 
	C428.510712,61.048203 431.578400,62.220360 434.109192,64.751701 
	C448.128632,78.774284 462.254028,92.690872 476.295044,106.692009 
	C478.017761,108.409851 479.441467,109.839981 482.274536,108.784569 
	C499.467773,102.379555 517.305725,119.100517 512.105164,138.498230 
	C508.341431,152.536774 495.607269,160.482147 481.998657,156.774811 
	C467.125702,152.723022 459.927094,139.553757 465.327972,124.484818 
	C467.216278,119.216270 466.090332,116.511551 462.436371,113.040840 
	C450.234222,101.450798 438.295135,89.581902 426.358368,77.716103 
	C424.076538,75.447823 421.675293,74.550919 418.448242,74.314674 
	C395.151306,72.609108 371.822601,73.954124 348.522308,73.300636 
	C343.700226,73.165398 342.250946,74.749130 342.265442,79.562126 
	C342.420654,131.061478 342.344330,182.561493 342.419830,234.061188 
	C342.427887,239.546600 343.061554,245.028687 343.273193,250.517395 
	C343.356873,252.687653 344.383698,254.331543 345.644226,255.887344 
	C352.892914,264.834076 360.958405,273.031464 368.988678,281.261383 
	C371.062408,283.386688 373.756378,283.566986 376.407227,283.575012 
	C398.406830,283.641632 420.406891,283.588593 442.406128,283.703918 
	C445.780701,283.721588 447.090057,282.052582 447.911011,279.158630 
	C451.345551,267.051544 471.769073,257.626007 484.450439,266.280304 
	C494.722229,273.290222 499.592926,287.236206 494.614105,299.249512 
	C490.194427,309.913727 477.509094,315.800995 465.442566,312.858429 
	C458.304535,311.117706 452.372040,307.821167 449.422485,300.664520 
	C448.309967,297.965210 446.458801,297.034393 443.600922,297.057556 
	C419.102661,297.256226 394.602753,297.286438 370.106079,297.590240 
	C367.151978,297.626862 365.029938,296.911560 362.971283,294.961304 
	C352.052765,284.617676 342.224060,273.312469 333.168976,261.327148 
	C330.464630,257.747681 329.604034,253.617172 329.609100,249.114227 
	C329.673370,192.281158 329.200806,135.442505 329.893890,78.617821 
	C330.138763,58.541134 320.567871,45.163208 305.513519,34.534718 
	C285.779175,20.602098 263.409424,18.763157 240.462936,22.946224 
	C211.415451,28.241488 187.671402,42.570824 170.310852,66.823814 
	C168.524460,69.319405 166.073517,70.148643 163.065460,70.529465 
	C137.105698,73.816109 112.941010,81.825180 93.325394,99.858269 
	C77.099159,114.775406 67.780022,133.448761 67.494728,155.799042 
	C67.400673,163.167343 64.812866,168.027878 59.209641,172.789642 
	C41.319393,187.993179 31.623943,207.827713 28.304291,230.979797 
	C25.787533,248.532288 28.348286,265.079803 37.222374,280.528839 
	C41.172455,287.405609 46.304810,293.353088 52.629234,298.056396 
	C57.134010,301.406494 58.646118,305.315948 57.238594,310.599243 
	C49.504566,339.629852 58.117085,364.033905 78.591789,384.899475 
	C90.470703,397.005188 105.455528,402.473450 122.066841,403.594696 
	C130.674957,404.175720 131.314209,403.917572 132.659103,412.604523 
	C137.555466,444.231140 157.272171,463.459717 185.370361,475.197235 
	C211.711487,486.200836 239.350830,491.552338 267.968658,491.764557 
	C272.244385,491.796204 273.741913,490.687286 273.736023,486.179871 
	C273.617523,395.013672 273.624542,303.847260 273.728546,212.681030 
	C273.732849,208.886429 272.106934,206.528183 269.611176,204.115997 
	C257.389923,192.304138 245.306107,180.350052 233.074982,168.548569 
	C230.612213,166.172287 229.544693,163.633728 229.589661,160.183029 
	C229.750351,147.851837 229.494049,135.514160 229.738449,123.185730 
	C229.819565,119.093781 228.763168,116.603928 225.048172,114.369026 
	C214.286423,107.894875 210.055374,96.009064 213.620316,84.063690 
	C216.923187,72.996460 229.532791,65.954506 242.862976,67.732834 
	C252.158386,68.972908 260.765320,79.473564 261.379150,89.858299 
	C262.085510,101.808487 257.657196,110.609268 246.442978,115.485992 
	C244.104874,116.502754 243.308395,118.084190 243.324402,120.551033 
	C243.399002,132.050491 243.417343,143.551300 243.307343,155.050217 
	C243.282257,157.672684 244.411880,159.396881 246.197754,161.074036 
	C257.613647,171.794937 268.881012,182.676300 280.413391,193.269562 
	C284.647064,197.158478 286.514954,201.379227 286.489716,207.251129 
	C286.289032,253.916779 286.454254,300.583984 286.255554,347.249664 
	C286.234222,352.262238 287.578003,353.651245 292.603088,353.890808 
	C316.752411,355.041931 340.884094,354.930115 365.031799,354.088898 
	C368.331635,353.973907 369.976624,352.589203 371.429199,349.703918 
	C377.613861,337.418793 390.750305,333.282196 404.292572,339.083557 
	C414.695770,343.540131 420.833344,358.298004 416.963043,369.549835 
	C412.521637,382.462097 400.307831,388.917236 387.255951,385.930542 
	C378.671967,383.966187 372.776825,379.329559 369.896729,371.163605 
	C368.688934,367.739166 366.271545,368.278137 363.867615,368.300140 
	C345.539429,368.467834 327.211670,368.681030 308.883759,368.881348 
	C302.715851,368.948761 296.540863,368.992157 290.430878,368.029602 
	C287.713837,367.601593 286.330597,368.222015 286.336853,371.258881 
	C286.421997,412.590302 286.457611,453.921875 286.515717,495.253387 
	C286.516174,495.575317 286.658600,495.897064 286.867371,496.609436 
	C259.312439,497.000000 231.624878,497.000000 203.468658,497.000000 
M474.477478,277.047150 
	C468.219360,275.930969 462.350220,279.097168 460.008972,284.852356 
	C458.060547,289.641998 459.975220,295.379395 464.528076,298.394318 
	C469.732056,301.840363 476.093201,301.100891 480.396271,296.549713 
	C486.503967,290.089874 484.217255,281.663269 474.477478,277.047150 
M499.645172,132.492447 
	C499.674896,128.589264 498.197266,125.317261 495.170990,122.915588 
	C489.572723,118.472755 483.034332,119.877556 478.583435,126.335815 
	C474.477936,132.292999 475.622437,138.495499 481.522125,142.261520 
	C489.831635,147.565857 497.743042,143.646179 499.645172,132.492447 
M404.649109,359.897003 
	C404.414490,358.937927 404.293396,357.932831 403.926422,357.027405 
	C401.868805,351.950928 398.530945,349.990662 392.494019,350.225525 
	C387.843231,350.406433 382.822388,354.167542 381.603912,358.383301 
	C380.207031,363.216339 381.700714,367.618408 385.880981,370.685822 
	C389.945099,373.667969 394.261353,374.502289 398.890900,371.959656 
	C403.355469,369.507629 404.833435,365.525726 404.649109,359.897003 
M247.143326,98.448074 
	C247.633392,97.048439 248.375702,95.682602 248.568573,94.243141 
	C249.292007,88.843994 246.432465,83.484238 241.908127,81.399940 
	C237.319336,79.285957 232.750946,80.080879 229.566833,83.547348 
	C225.445114,88.034576 224.468765,93.534897 226.967941,98.188446 
	C230.886765,105.485451 240.239304,105.898941 247.143326,98.448074 
z"/>
<path fill="#000000" opacity="1.000000" stroke="none" 
	d="
M160.593323,131.239853 
	C169.106812,136.512405 172.682999,150.888687 167.818954,163.183289 
	C166.539917,166.416290 167.042923,168.244354 169.401688,170.509949 
	C189.347397,189.667786 209.161621,208.962494 229.111862,228.115585 
	C231.924622,230.815964 233.435928,233.550034 233.429520,237.638123 
	C233.317673,308.963135 233.336273,380.288361 233.379547,451.613525 
	C233.382095,455.809052 233.137634,459.276947 227.595871,459.478516 
	C220.967850,459.719574 219.657455,458.704102 219.656418,451.967804 
	C219.645844,383.642273 219.584503,315.316559 219.766296,246.991531 
	C219.781403,241.311310 218.089157,237.213867 214.059631,233.383499 
	C195.824234,216.049240 177.779709,198.514389 159.611572,181.109024 
	C156.007645,177.656433 152.400528,174.808075 146.568451,175.165115 
	C135.570847,175.838394 126.280418,170.013168 122.623932,161.346252 
	C118.738548,152.136795 120.821747,140.323868 127.550232,133.411316 
	C134.275391,126.502182 145.968140,124.530090 155.899399,128.691254 
	C157.423325,129.329758 158.835480,130.235062 160.593323,131.239853 
M137.836655,159.692490 
	C138.973267,160.361710 140.049225,161.178497 141.256882,161.674850 
	C146.787903,163.948120 152.933990,161.934021 155.491486,157.096695 
	C158.271118,151.839233 156.748657,144.944321 152.154022,141.982117 
	C146.542343,138.364212 140.916336,139.336990 136.823669,144.632812 
	C133.278946,149.219604 133.425629,153.629913 137.836655,159.692490 
z"/>
<path fill="#000000" opacity="1.000000" stroke="none" 
	d="
M542.344604,211.204102 
	C542.961670,222.845871 537.137390,230.299988 527.987976,235.463852 
	C518.808228,240.644852 509.928009,238.128433 501.457092,233.320541 
	C497.990906,231.353226 495.881775,227.964279 494.560486,224.360123 
	C493.378540,221.136185 491.551697,220.236115 488.243469,220.256317 
	C461.411804,220.420166 434.577728,220.279922 407.747833,220.562317 
	C402.760712,220.614807 401.428802,218.956177 401.570770,214.271881 
	C401.858459,204.780609 401.541626,195.272034 401.760498,185.777176 
	C401.843628,182.170364 400.563629,180.210312 397.455017,178.276474 
	C387.183929,171.886856 384.265472,161.910095 385.795563,150.563339 
	C387.104279,140.857895 393.323975,134.809738 402.362946,131.772278 
	C414.662384,127.639168 428.474762,134.830200 433.412964,147.671158 
	C437.913818,159.374802 432.259644,173.857346 420.597748,178.674805 
	C416.107849,180.529556 415.019531,182.957077 415.277954,187.290039 
	C415.584991,192.438431 415.433228,197.620346 415.328156,202.784637 
	C415.272034,205.543533 416.361053,206.678223 419.150116,206.670425 
	C442.149017,206.606155 465.148285,206.648758 488.146942,206.544876 
	C490.571899,206.533920 492.768555,206.060364 494.111847,203.103241 
	C499.441193,191.371109 508.735870,186.117569 520.356873,187.776550 
	C532.820984,189.555893 540.127625,197.191864 542.344604,211.204102 
M421.633270,155.713531 
	C420.221588,148.380508 416.019135,143.687744 410.623657,143.419388 
	C404.703552,143.124954 398.643829,149.312317 398.314819,155.987473 
	C398.011658,162.138351 403.213135,168.139023 409.256378,168.610153 
	C415.757172,169.116959 421.020111,163.974442 421.633270,155.713531 
M507.782837,220.612778 
	C509.298401,222.516113 511.420349,223.496490 513.634827,224.196564 
	C519.411987,226.022949 525.773132,222.745361 528.149170,216.827240 
	C530.343201,211.362549 527.645142,204.581619 522.302246,202.132477 
	C517.823730,200.079575 512.054565,201.279877 508.609283,204.981308 
	C504.598022,209.290802 504.186920,214.120880 507.782837,220.612778 
z"/>
<path fill="#000000" opacity="1.000000" stroke="none" 
	d="
M91.314590,239.848022 
	C103.364067,236.272995 116.060814,241.885590 120.599617,253.007477 
	C121.909782,256.217896 123.622078,256.735992 126.562592,256.709808 
	C138.723358,256.601440 150.887985,256.795990 163.046005,256.583221 
	C167.227539,256.510101 168.453354,258.011505 168.414078,262.083160 
	C168.237289,280.407410 168.446213,298.735626 168.237823,317.059235 
	C168.189774,321.285400 169.203262,324.066254 172.937195,326.519928 
	C181.593445,332.208313 185.745956,340.530548 184.166885,350.916443 
	C182.742233,360.286652 178.259445,367.813934 168.998886,371.684937 
	C152.791519,378.459839 136.050537,367.273041 135.542160,349.811554 
	C135.180359,337.383820 140.703796,329.192963 151.578903,324.186615 
	C153.974838,323.083679 154.681320,321.608215 154.672073,319.182465 
	C154.616867,304.688568 154.549011,290.193146 154.716827,275.700928 
	C154.761536,271.840485 153.100494,270.822266 149.628311,270.846222 
	C141.301422,270.903656 132.970474,270.845917 124.646858,270.622620 
	C122.051369,270.552979 121.138794,271.967102 120.360962,273.934631 
	C114.071976,289.842621 99.367470,291.789490 85.903610,286.416534 
	C80.044220,284.078308 76.077972,279.465912 74.738708,273.178497 
	C71.215157,256.636658 74.674294,246.276566 91.314590,239.848022 
M89.217545,256.701416 
	C87.435776,259.761505 84.579071,262.374084 86.206604,266.611938 
	C88.456001,272.469086 92.821884,275.847534 98.496422,275.653473 
	C103.504646,275.482208 108.079826,272.098938 109.380531,267.604828 
	C110.915749,262.300446 109.034225,256.927002 104.627396,254.030319 
	C100.104752,251.057526 94.767937,251.813446 89.217545,256.701416 
M169.982346,342.636230 
	C168.681931,340.427734 166.839127,338.837677 164.534470,337.727539 
	C159.016083,335.069519 153.150558,336.875763 149.446426,342.409424 
	C146.189880,347.274445 146.959122,352.470093 151.549408,356.614349 
	C155.617950,360.287537 161.537903,360.889557 165.754578,358.058899 
	C170.484009,354.884033 172.334702,348.930115 169.982346,342.636230 
z"/>
</svg>